# xmcd
#
# Track frame offsets: 
#        150
#        13197
#        29077
#        44605
#        60400
#        75220
#        86507
#        100755
#        118315
#        136687
#        151665
#        170415
#        179122
#        223697
#        236437
#        257847
#        269735
#        283665
#        294830
#
# Disc length: 4066 seconds
#
# Revision: 0
# Processed by: cddbd v1.5.2PL0 Copyright (c) Steve Scherf et al.
# Submitted via: ExactAudioCopy v1.0b3
#
DISCID=0e0fe013
DTITLE=ZZ Top - Six Pack [CD 1) Tres Hombres and Fandango!
DYEAR=1987
DGENRE=Rock
TTITLE0=Waitin' For The Bus (Tres Hombres)
TTITLE1=Jesus Just Left Chicago (Tres Hombres)
TTITLE2=Beer Drinkers and Hell Raisers (Tres Hombres)
TTITLE3=Master Of Sparks (Tres Hombres)
TTITLE4=Hot, Blue And Righteous (Tres Hombres)
TTITLE5=Move Me On Down The Line (Tres Hombres)
TTITLE6=Precious And Grace (Tres Hombres)
TTITLE7=La Grange (Tres Hombres)
TTITLE8=Shiek (Tres Hombres)
TTITLE9=Have You Heard (Tres Hombres)
TTITLE10=Thunderbird (Fandango!)
TTITLE11=Jail House Rock  (Fandango!)
TTITLE12=Backdoor Medley (Fandango!)
TTITLE13=Nasty Dogs And Funky Kings (Fandango!)
TTITLE14=Blue Jean Blues (Fandango!)
TTITLE15=Balinese (Fandango!)
TTITLE16=Mexican Blackbird (Fandango!)
TTITLE17=Heard It On The X (Fandango!)
TTITLE18=Tush (Fandango!)
EXTD=
EXTT0=
EXTT1=
EXTT2=
EXTT3=
EXTT4=
EXTT5=
EXTT6=
EXTT7=
EXTT8=
EXTT9=
EXTT10=
EXTT11=
EXTT12=
EXTT13=
EXTT14=
EXTT15=
EXTT16=
EXTT17=
EXTT18=
PLAYORDER=
